<?xml version="1.0" encoding="utf-8"?>
<!-- Generator: Adobe Illustrator 17.1.0, SVG Export Plug-In . SVG Version: 6.00 Build 0)  -->
<!DOCTYPE svg PUBLIC "-//W3C//DTD SVG 1.1//EN" "http://www.w3.org/Graphics/SVG/1.1/DTD/svg11.dtd">
<svg  version="1.1" id="Ebene_1" xmlns="http://www.w3.org/2000/svg" xmlns:xlink="http://www.w3.org/1999/xlink" x="0px" y="0px"
	 viewBox="0 0 128 147.1" enable-background="new 0 0 128 147.1" xml:space="preserve">
<g >
	<polygon fill="none" points="128,73.7 127.8,73.7 127.8,73.8 	"/>
	<polygon fill="none" points="31.9,18.3 31.9,18.5 32.1,18.4 	"/>
	<polygon fill="none" points="95.9,18.3 95.8,18.4 95.9,18.5 	"/>
	<polygon fill="none" points="31.9,129.2 32.4,128.9 31.9,128.6 	"/>
	<polygon fill="none" points="95.6,128.8 95.9,129 95.9,128.6 	"/>
	<polygon fill="#E6007E" points="31.9,92.1 31.9,92.1 31.9,92 	"/>
	<polygon opacity="0.9" fill="#AD586E" points="31.9,55.3 0.1,73.7 31.9,92.1 31.9,92 	"/>
	<polygon fill="#E6007E" points="95.9,92 95.9,92.2 96.1,92.1 	"/>
	<polygon fill="#5F2D3F" points="63.9,36.8 32.1,55.2 63.9,73.6 	"/>
	<polygon fill="#009DA3" points="31.9,92 31.9,92.1 63.9,110.6 63.9,73.6 	"/>
	<polygon fill="#005872" points="63.9,73.6 63.9,110.6 64,110.6 95.9,92.2 95.9,92 	"/>
	<polygon fill="#AD586E" points="63.9,73.6 32.1,55.2 31.9,55.3 31.9,92 	"/>
	<polygon fill="#EC6839" points="95.8,55.2 64,36.8 63.9,36.8 63.9,73.6 	"/>
	<polygon fill="#E6007E" points="31.9,55.1 31.9,55.3 32.1,55.2 	"/>
	<polygon fill="#E6007E" points="63.9,110.7 64,110.6 63.9,110.6 	"/>
	<polygon fill="#E6007E" points="63.9,36.8 63.9,36.8 64,36.8 	"/>
	<polygon fill="#E6007E" points="95.9,55.1 95.8,55.2 95.9,55.2 	"/>
	<polygon fill="#F4B363" points="95.9,92 95.9,55.2 95.8,55.2 63.9,73.6 	"/>
	<polygon fill="#4B6577" points="95.9,92.2 95.9,128.6 127.6,110.3 96.1,92.1 	"/>
	<polygon opacity="0.9" fill="#009DA3" points="63.9,110.6 31.9,92.1 31.9,128.6 32.4,128.9 63.9,110.7 	"/>
	<polygon fill="#775F76" points="0.1,73.7 0,73.7 0,110.2 0.2,110.3 31.9,92.1 	"/>
	<polygon fill="#7D898C" points="31.9,92.1 0.2,110.3 31.9,128.6 31.9,92.1 	"/>
	<polygon fill="#E6007E" points="0,73.7 0,73.7 0.1,73.7 	"/>
	<polygon fill="#006A8F" points="63.9,110.7 63.9,147.1 95.6,128.8 64,110.6 	"/>
	<polygon fill="#3C7E91" points="32.4,128.9 63.9,147.1 63.9,110.7 	"/>
	<polygon opacity="0.9" fill="#005872" points="95.9,92.2 64,110.6 95.6,128.8 95.9,128.6 	"/>
	<polygon fill="#8D4861" points="31.9,55.3 31.9,55.1 0.2,36.8 0,36.9 0,73.7 0.1,73.7 	"/>
	<polygon fill="#763950" points="31.9,18.5 0.2,36.8 31.9,55.1 	"/>
	<polygon fill="#7F927A" points="127.6,110.3 127.8,110.2 127.8,73.8 96.1,92.1 	"/>
	<polygon fill="#EF955B" points="95.9,55.2 127.8,73.7 127.8,36.9 127.6,36.8 95.9,55.1 	"/>
	<polygon opacity="0.9" fill="#EC6839" points="95.8,55.2 95.9,55.1 95.9,18.5 95.8,18.4 64,36.8 	"/>
	<polygon opacity="0.9" fill="#F4B363" points="95.9,92 96.1,92.1 127.8,73.8 127.8,73.7 95.9,55.2 	"/>
	<polygon fill="#EB8054" points="127.6,36.8 95.9,18.5 95.9,55.1 	"/>
	<polygon fill="#B6624D" points="64,36.8 95.8,18.4 63.9,0 63.9,36.8 	"/>
	<polygon opacity="0.9" fill="#5F2D3F" points="32.1,55.2 63.9,36.8 63.9,36.8 32.1,18.4 31.9,18.5 31.9,55.1 	"/>
	<polygon fill="#774C4F" points="63.9,0 32.1,18.4 63.9,36.8 	"/>
</g>
<g>
	<polygon fill="none" points="128,74.3 127.9,74.2 127.9,74.4 	"/>
	<polygon fill="none" points="31.9,18.9 31.9,19.1 32.1,19 	"/>
	<polygon fill="none" points="96,18.9 95.8,19 96,19.1 	"/>
	<polygon fill="none" points="31.9,129.8 32.4,129.5 31.9,129.2 	"/>
	<polygon fill="none" points="95.6,129.4 96,129.6 96,129.2 	"/>
	<polygon fill="#E6007E" points="31.9,92.6 31.9,92.7 31.9,92.6 	"/>
	<polygon opacity="0.9" fill="#AD586E" points="31.9,55.9 0.1,74.3 31.9,92.6 31.9,92.6 	"/>
	<polygon fill="#E6007E" points="96,92.6 96,92.8 96.1,92.7 	"/>
	<polygon fill="#5F2D3F" points="63.9,37.4 32.1,55.8 63.9,74.1 	"/>
	<polygon fill="#009DA3" points="31.9,92.6 31.9,92.7 63.9,111.1 63.9,74.1 	"/>
	<polygon fill="#005872" points="63.9,74.1 63.9,111.1 64.1,111.2 96,92.8 96,92.6 	"/>
	<polygon fill="#AD586E" points="63.9,74.1 32.1,55.8 31.9,55.9 31.9,92.6 	"/>
	<polygon fill="#EC6839" points="95.8,55.7 64,37.4 63.9,37.4 63.9,74.1 	"/>
	<polygon fill="#E6007E" points="31.9,55.7 31.9,55.9 32.1,55.8 	"/>
	<polygon fill="#E6007E" points="63.9,111.3 64.1,111.2 63.9,111.1 	"/>
	<polygon fill="#E6007E" points="63.9,37.3 63.9,37.4 64,37.4 	"/>
	<polygon fill="#E6007E" points="96,55.7 95.8,55.7 96,55.8 	"/>
	<polygon fill="#F4B363" points="96,92.6 96,55.8 95.8,55.7 63.9,74.1 	"/>
	<polygon fill="#4B6577" points="96,92.8 96,129.2 127.6,110.9 96.1,92.7 	"/>
	<polygon opacity="0.9" fill="#009DA3" points="63.9,111.1 31.9,92.7 31.9,129.2 32.4,129.5 63.9,111.3 	"/>
	<polygon fill="#775F76" points="0.1,74.3 0,74.3 0,110.8 0.2,110.9 31.9,92.6 	"/>
	<polygon fill="#7D898C" points="31.9,92.6 0.2,110.9 31.9,129.2 31.9,92.7 	"/>
	<polygon fill="#E6007E" points="0,74.2 0,74.3 0.1,74.3 	"/>
	<polygon fill="#006A8F" points="63.9,111.3 63.9,147.7 95.6,129.4 64.1,111.2 	"/>
	<polygon fill="#3C7E91" points="32.4,129.5 63.9,147.7 63.9,111.3 	"/>
	<polygon opacity="0.9" fill="#005872" points="96,92.8 64.1,111.2 95.6,129.4 96,129.2 	"/>
	<polygon fill="#8D4861" points="31.9,55.9 31.9,55.7 0.2,37.4 0,37.5 0,74.2 0.1,74.3 	"/>
	<polygon fill="#763950" points="31.9,19.1 0.2,37.4 31.9,55.7 	"/>
	<polygon fill="#7F927A" points="127.6,110.9 127.9,110.8 127.9,74.4 96.1,92.7 	"/>
	<polygon fill="#EF955B" points="96,55.8 127.9,74.2 127.9,37.5 127.6,37.4 96,55.7 	"/>
	<polygon opacity="0.9" fill="#EC6839" points="95.8,55.7 96,55.7 96,19.1 95.8,19 64,37.4 	"/>
	<polygon opacity="0.9" fill="#F4B363" points="96,92.6 96.1,92.7 127.9,74.4 127.9,74.2 96,55.8 	"/>
	<polygon fill="#EB8054" points="127.6,37.4 96,19.1 96,55.7 	"/>
	<polygon fill="#B6624D" points="64,37.4 95.8,19 63.9,0.6 63.9,37.3 	"/>
	<polygon opacity="0.9" fill="#5F2D3F" points="32.1,55.8 63.9,37.4 63.9,37.3 32.1,19 31.9,19.1 31.9,55.7 	"/>
	<polygon fill="#774C4F" points="63.9,0.6 32.1,19 63.9,37.3 	"/>
</g>
<image  overflow="visible" width="467" height="467" xlink:href="56CFFD44.png"  transform="matrix(0.24 0 0 0.24 8.1963 18.6162)">
</image>
</svg>
